<svg width="21" height="20" viewBox="0 0 21 20" fill="none" xmlns="http://www.w3.org/2000/svg">
<g filter="url(#filter0_d_268_164)">
<path d="M10.3125 11.125C10 11.125 9.625 11 9.375 10.75C5.3125 7.1875 5.25 7.125 5.25 7.0625L5.1875 7C4.4375 6.25 4 5.1875 4 4.125V4C4.0625 1.75 5.875 0 8.125 0C8.8125 0 9.75 0.375 10.3125 1.125C10.875 0.375 11.875 0 12.5625 0C14.8125 0 16.5625 1.75 16.6875 4V4.125C16.6875 5.25 16.25 6.25 15.5 7.0625L15.4375 7.125C15.375 7.1875 14.875 7.625 11.3125 10.8125C11 11 10.6875 11.125 10.3125 11.125ZM6.1875 6.875C6.4375 7.125 7.6875 8 10 10C10.1875 10.1875 10.4375 10.1875 10.625 10C13 7.875 14.375 6.6875 14.6875 6.4375L14.75 6.375C15.375 5.75 15.6875 4.9375 15.6875 4.125V4C15.625 2.25 14.25 0.9375 12.5 0.9375C12.0625 0.9375 11.1875 1.25 10.875 1.9375C10.75 2.1875 10.5 2.3125 10.25 2.3125C10 2.3125 9.75 2.1875 9.625 1.9375C9.3125 1.3125 8.5 0.9375 8 0.9375C6.3125 0.9375 4.875 2.3125 4.8125 4V4.1875C4.8125 5 5.1875 5.8125 5.75 6.375L6.1875 6.875Z" fill="#6C757D" fill-opacity="0.6" shape-rendering="crispEdges"/>
</g>
<defs>
<filter id="filter0_d_268_164" x="0" y="0" width="20.6875" height="19.125" filterUnits="userSpaceOnUse" color-interpolation-filters="sRGB">
<feFlood flood-opacity="0" result="BackgroundImageFix"/>
<feColorMatrix in="SourceAlpha" type="matrix" values="0 0 0 0 0 0 0 0 0 0 0 0 0 0 0 0 0 0 127 0" result="hardAlpha"/>
<feOffset dy="4"/>
<feGaussianBlur stdDeviation="2"/>
<feComposite in2="hardAlpha" operator="out"/>
<feColorMatrix type="matrix" values="0 0 0 0 0 0 0 0 0 0 0 0 0 0 0 0 0 0 0.25 0"/>
<feBlend mode="normal" in2="BackgroundImageFix" result="effect1_dropShadow_268_164"/>
<feBlend mode="normal" in="SourceGraphic" in2="effect1_dropShadow_268_164" result="shape"/>
</filter>
</defs>
</svg>
